<svg width="1600" height="900" viewBox="0 0 1600 900" fill="none" xmlns="http://www.w3.org/2000/svg">
  <defs>
    <radialGradient id="bg" cx="50%" cy="45%" r="80%" fx="50%" fy="45%">
      <stop offset="0%" stop-color="#1E3A8A"/>
      <stop offset="45%" stop-color="#0F172A"/>
      <stop offset="100%" stop-color="#020617"/>
    </radialGradient>
    <linearGradient id="brainGlow" x1="0" y1="0" x2="1" y2="1">
      <stop offset="0%" stop-color="#FFB347"/>
      <stop offset="50%" stop-color="#F97316"/>
      <stop offset="100%" stop-color="#FACC15"/>
    </linearGradient>
    <linearGradient id="wave" x1="0" y1="0" x2="1" y2="0">
      <stop offset="0%" stop-color="#22D3EE"/>
      <stop offset="50%" stop-color="#6366F1"/>
      <stop offset="100%" stop-color="#38BDF8"/>
    </linearGradient>
    <filter id="glow" x="-20%" y="-20%" width="140%" height="140%">
      <feGaussianBlur stdDeviation="18" result="coloredBlur"/>
      <feMerge>
        <feMergeNode in="coloredBlur"/>
        <feMergeNode in="SourceGraphic"/>
      </feMerge>
    </filter>
  </defs>
  <rect width="1600" height="900" fill="url(#bg)"/>
  <g opacity="0.45" stroke="#38BDF8" stroke-width="2">
    <ellipse cx="800" cy="450" rx="620" ry="320"/>
    <ellipse cx="800" cy="450" rx="520" ry="260"/>
    <ellipse cx="800" cy="450" rx="420" ry="210"/>
    <ellipse cx="800" cy="450" rx="320" ry="160"/>
    <ellipse cx="800" cy="450" rx="220" ry="110"/>
  </g>
  <g filter="url(#glow)">
    <ellipse cx="800" cy="450" rx="240" ry="300" fill="rgba(15,23,42,0.4)" stroke="url(#brainGlow)" stroke-width="10"/>
    <path d="M680 450C680 390 720 330 800 330C880 330 920 390 920 450C920 510 880 570 800 570C720 570 680 510 680 450Z" fill="none" stroke="#FDBA74" stroke-width="6"/>
    <path d="M760 320C730 340 705 380 705 450C705 520 730 560 760 580" stroke="#F97316" stroke-width="4"/>
    <path d="M840 320C870 340 895 380 895 450C895 520 870 560 840 580" stroke="#F97316" stroke-width="4"/>
  </g>
  <g stroke="url(#wave)" stroke-width="3" stroke-linecap="round" fill="none" opacity="0.65">
    <path d="M0 290C80 270 160 310 240 300C320 290 400 240 480 260C560 280 640 360 720 360C800 360 880 300 960 300C1040 300 1120 350 1200 340C1280 330 1360 270 1440 260C1520 250 1600 280 1680 260"/>
    <path d="M0 420C90 430 180 370 270 380C360 390 450 460 540 450C630 440 720 360 810 360C900 360 990 430 1080 440C1170 450 1260 400 1350 400C1440 400 1530 450 1620 460"/>
    <path d="M0 540C100 520 200 600 300 600C400 600 500 530 600 530C700 530 800 600 900 590C1000 580 1100 510 1200 510C1300 510 1400 580 1500 590C1600 600 1700 560 1800 570"/>
  </g>
  <g opacity="0.6" stroke="#38BDF8" stroke-width="3" stroke-linecap="round">
    <path d="M800 620C780 660 760 700 760 740C760 780 780 820 800 860"/>
    <path d="M800 620C820 660 840 700 840 740C840 780 820 820 800 860"/>
    <path d="M760 680L840 700"/>
    <path d="M760 740L840 760"/>
    <path d="M760 800L840 820"/>
  </g>
  <text x="50%" y="120" font-family="'Segoe UI', 'Inter', sans-serif" font-size="68" fill="#F8FAFC" text-anchor="middle">From Context Anxiety to Context-Aware Engineering</text>
  <text x="50%" y="190" font-family="'Segoe UI', 'Inter', sans-serif" font-size="34" fill="#BAE6FD" text-anchor="middle" opacity="0.9">Design loops that transform attention limits into resilient autonomy</text>
</svg>
